G04 DipTrace 5.1.0.2*
G04 Stepper_0.1.0.gbr*
%MOIN*%
G04 #@! TF.FileFunction,Copper,L1,Top*
G04 #@! TF.Part,Single*
%AMOUTLINE0*
4,1,4,
-0.029416,0.029639,
0.029639,0.029416,
0.029416,-0.029639,
-0.029639,-0.029416,
-0.029416,0.029639,
0*%
G04 #@! TA.AperFunction,Conductor*
%ADD14C,0.023622*%
%ADD15C,0.0125*%
G04 #@! TA.AperFunction,CopperBalancing*
%ADD16C,0.025*%
G04 #@! TA.AperFunction,ComponentPad*
%ADD17R,0.062992X0.062992*%
%ADD18C,0.062992*%
%ADD19C,0.05*%
%ADD20R,0.05X0.05*%
%ADD21R,0.059055X0.059055*%
%ADD22C,0.059055*%
%ADD23C,0.059055*%
%ADD24C,0.05*%
%ADD26R,0.06378X0.06378*%
%ADD27C,0.06378*%
%ADD52OUTLINE0*%
%FSLAX26Y26*%
G04*
G70*
G90*
G75*
G01*
G04 Top*
%LPD*%
X2282400Y2694819D2*
D14*
Y2658835D1*
X2351193Y2590042D1*
X2501724D1*
X2532400Y2559366D1*
Y2494819D1*
X2182400Y2694819D2*
X2282400D1*
X2532400Y2494819D2*
Y2549188D1*
X2550077Y2566865D1*
X2810063D1*
X2893156Y2649958D1*
Y3081903D1*
X2776444D1*
X1216600Y655548D2*
Y718126D1*
X1382269Y883795D1*
X782269Y1483795D2*
X899825D1*
X910386Y1494356D1*
Y2964358D1*
X1189077Y3243050D1*
X2100727D1*
X2582400Y2761377D1*
Y2694819D1*
X782269Y1383795D2*
X964709D1*
X996391Y1415478D1*
Y2921335D1*
X1235129Y3160072D1*
X2033941D1*
X2482400Y2711613D1*
Y2694819D1*
X2332400Y2494819D2*
X2306457D1*
X2176312Y2624963D1*
X1826609D1*
X1393142Y3058430D1*
X1233277D1*
X1080686Y2905840D1*
Y1357542D1*
X1006940Y1283795D1*
X782269D1*
Y1183795D2*
X1041390D1*
X1171919Y1314324D1*
Y2852781D1*
X1258802Y2939664D1*
X1377566D1*
X1746176Y2571054D1*
X2148969D1*
X2225203Y2494819D1*
X2232400D1*
X782269Y2183795D2*
X721199D1*
X684328Y2146924D1*
Y684110D1*
X795472Y572966D1*
X934024D1*
X1016600Y655542D1*
X2375118Y2393894D2*
Y2437537D1*
X2432400Y2494819D1*
X2487289Y3164992D2*
X2510953D1*
X2423210Y3252735D1*
X2247546D1*
X1940762Y687072D2*
X2051675D1*
X2066886Y702282D1*
X2847445D1*
X3090894Y945731D1*
Y1219193D1*
X1732381Y1865055D2*
Y1592577D1*
X1732379Y1592576D1*
Y1314093D1*
X1739058D1*
Y1043256D1*
X1732433Y1036631D1*
Y895400D1*
X1940762Y687072D1*
X1732381Y1865055D2*
Y2030253D1*
X1949383Y2247256D1*
X2256497D1*
X2375118Y2365877D1*
Y2393894D1*
X916600Y655539D2*
Y849465D1*
X782269Y983795D1*
X2082400Y2694819D2*
X2015303D1*
X1916377Y2793745D1*
X2130016Y1863551D2*
X2374371D1*
X2375118Y1864297D1*
Y2046760D2*
Y1867720D1*
X2379288Y1863551D1*
X2130016D1*
X2375118Y1864297D2*
Y1879989D1*
X2594238Y2099109D1*
X3083883D1*
X3090894Y2092098D1*
X2132400Y2494819D2*
Y2451370D1*
X2191703Y2392067D1*
X2245719D1*
X2247546Y2393894D1*
X2130017Y1592576D2*
X2296873Y1592570D1*
X2368440D1*
X2296873Y1732020D2*
Y1592570D1*
X2368440D2*
Y1640672D1*
X2466899Y1739132D1*
X2887927D1*
X3090894Y1942098D1*
X2632400Y2494819D2*
Y2461633D1*
X2561076Y2390308D1*
X2511054D1*
X2507469Y2393894D1*
X2136696Y1314106D2*
X2236762Y1314105D1*
X2375107D1*
X2375118Y1314094D1*
X2236762Y1314105D2*
Y1419432D1*
X2234041Y1422154D1*
Y1446160D1*
X2375118Y1314094D2*
Y1377980D1*
X2454655Y1457517D1*
X2814185D1*
X3090894Y1734226D1*
X2682400Y2694819D2*
D15*
X2800938D1*
X2804528Y2698408D1*
X2130071Y1036631D2*
D14*
X2368434D1*
X2368440Y1036625D1*
X2130071D2*
Y1187592D1*
X2368440Y1036625D2*
Y1072545D1*
X2469348Y1173454D1*
X2787695D1*
X2873404Y1259163D1*
Y1366736D1*
X3090894Y1584226D1*
X1699688Y608066D2*
Y587072D1*
X1940768D1*
X782269Y2283795D2*
X702883D1*
X591109Y2172021D1*
Y651844D1*
X777546Y465407D1*
X953227D1*
X1116600Y628780D1*
Y655545D1*
X3008432Y2663608D2*
X3005801D1*
X2807751Y2465558D1*
X2732400D1*
Y2494819D1*
X1382269Y1283795D2*
X1501499D1*
X1596671Y1378967D1*
Y2010102D1*
X1944050Y2357482D1*
X2072134D1*
X2732400Y2494819D2*
Y2383911D1*
X2705971Y2357482D1*
X1529022Y2597593D2*
X1593381D1*
X1821780Y2369194D1*
X1947322Y2494736D1*
X2032318D1*
X2032400Y2494819D1*
X1382269Y1383795D2*
X1449923D1*
X1490577Y1424450D1*
Y2037992D1*
X1821780Y2369194D1*
X2557847Y3222945D2*
D16*
X3102915D1*
X2287190Y3198076D2*
X2406977D1*
X2557847D2*
X3102538D1*
X2091711Y3173207D2*
X2099665D1*
X2241474D2*
X2416738D1*
X2561112D2*
X3102180D1*
X2116579Y3148338D2*
X2124533D1*
X2266341D2*
X2416738D1*
X2558869D2*
X2705893D1*
X2847001D2*
X3101821D1*
X2141446Y3123470D2*
X2149401D1*
X2291209D2*
X2416738D1*
X2557847D2*
X2705893D1*
X2920384D2*
X3101462D1*
X1509777Y3098601D2*
X2024506D1*
X2166314D2*
X2174268D1*
X2316077D2*
X2416738D1*
X2557847D2*
X2705893D1*
X2941054D2*
X3101103D1*
X1508790Y3073732D2*
X2049373D1*
X2191182D2*
X2199136D1*
X2340945D2*
X2705893D1*
X2944014D2*
X3100726D1*
X1507786Y3048863D2*
X2074241D1*
X2216050D2*
X2224022D1*
X2365812D2*
X2705893D1*
X2944014D2*
X3100367D1*
X1506781Y3023994D2*
X2099127D1*
X2240917D2*
X2248890D1*
X2390680D2*
X2705893D1*
X2944014D2*
X3100009D1*
X1523341Y2999126D2*
X2123995D1*
X2265785D2*
X2273757D1*
X2415548D2*
X2842288D1*
X2944014D2*
X3099650D1*
X1548209Y2974257D2*
X2148862D1*
X2290653D2*
X2298625D1*
X2440416D2*
X2842288D1*
X2944014D2*
X3099291D1*
X1573077Y2949388D2*
X2173730D1*
X2315521D2*
X2323493D1*
X2465283D2*
X2842288D1*
X2944014D2*
X3098914D1*
X1597945Y2924519D2*
X2198598D1*
X2340388D2*
X2348360D1*
X2490151D2*
X2842288D1*
X2944014D2*
X3098555D1*
X1622830Y2899651D2*
X2223466D1*
X2365256D2*
X2373228D1*
X2515019D2*
X2842288D1*
X2944014D2*
X3098196D1*
X1647698Y2874782D2*
X2248333D1*
X2390124D2*
X2398096D1*
X2539886D2*
X2842288D1*
X2944014D2*
X3097838D1*
X1672566Y2849913D2*
X1879067D1*
X1953700D2*
X2273201D1*
X2414992D2*
X2422964D1*
X2564772D2*
X2842288D1*
X2944014D2*
X3097479D1*
X1697433Y2825044D2*
X1855671D1*
X1977079D2*
X2298069D1*
X2439877D2*
X2447831D1*
X2589640D2*
X2842288D1*
X2944014D2*
X3097120D1*
X1722301Y2800176D2*
X1848099D1*
X1984650D2*
X2322937D1*
X2464745D2*
X2472699D1*
X2614508D2*
X2842288D1*
X2944014D2*
X3096743D1*
X1747169Y2775307D2*
X1850414D1*
X2005714D2*
X2347804D1*
X2489613D2*
X2497567D1*
X2631212D2*
X2842288D1*
X2944014D2*
X3096384D1*
X1772037Y2750438D2*
X1863960D1*
X2030582D2*
X2040008D1*
X2124796D2*
X2140017D1*
X2224787D2*
X2240008D1*
X2324797D2*
X2372672D1*
X2724798D2*
X2761280D1*
X2944014D2*
X3096025D1*
X1494813Y2725569D2*
X1520764D1*
X1796904D2*
X1913659D1*
X2346040D2*
X2397540D1*
X2944014D2*
X3095667D1*
X1493809Y2700701D2*
X1545631D1*
X1821772D2*
X1938527D1*
X2353091D2*
X2411714D1*
X2944014D2*
X2956813D1*
X3060064D2*
X3095308D1*
X1492804Y2675832D2*
X1570499D1*
X1846640D2*
X1963395D1*
X2350651D2*
X2414136D1*
X3071260D2*
X3094931D1*
X1562186Y2650963D2*
X1595367D1*
X2361165D2*
X2427360D1*
X2737447D2*
X2756023D1*
X3071170D2*
X3094572D1*
X2536460Y2626094D2*
X2798384D1*
X3059741D2*
X3094213D1*
X3014311Y2601225D2*
X3093854D1*
X2989444Y2576357D2*
X3093496D1*
X2964576Y2551488D2*
X3093137D1*
X1486811Y2526619D2*
X1593447D1*
X2939708D2*
X3092760D1*
X1485824Y2501750D2*
X1618315D1*
X1760123D2*
X1883427D1*
X2914840D2*
X3088400D1*
X1484820Y2476882D2*
X1643200D1*
X1784991D2*
X1858559D1*
X2889973D2*
X3076469D1*
X1483815Y2452013D2*
X1668068D1*
X1809859D2*
X1833692D1*
X2865105D2*
X3064519D1*
X1482828Y2427144D2*
X1692936D1*
X1950632D2*
X1961457D1*
X2668818D2*
X2681527D1*
X2839645D2*
X3052570D1*
X1481823Y2402275D2*
X1717804D1*
X2643951D2*
X2654883D1*
X2783271D2*
X3040638D1*
X1480819Y2377407D2*
X1742671D1*
X2619083D2*
X2640458D1*
X2782822D2*
X3028689D1*
X1479832Y2352538D2*
X1734221D1*
X2140531D2*
X2161332D1*
X2429166D2*
X2453429D1*
X2593785D2*
X2637569D1*
X2774372D2*
X3016739D1*
X1478827Y2327669D2*
X1709353D1*
X2133606D2*
X2266006D1*
X2407815D2*
X2644495D1*
X2767446D2*
X3004790D1*
X1477840Y2302800D2*
X1684485D1*
X1960267D2*
X2032526D1*
X2111734D2*
X2241139D1*
X2382947D2*
X2666366D1*
X2745575D2*
X2992858D1*
X1476835Y2277931D2*
X1659617D1*
X2358079D2*
X2980909D1*
X1477140Y2253063D2*
X1634750D1*
X2333212D2*
X2968960D1*
X1477445Y2228194D2*
X1609882D1*
X2308344D2*
X2957010D1*
X1477768Y2203325D2*
X1585014D1*
X2279224D2*
X2945079D1*
X1478073Y2178456D2*
X1560146D1*
X1951476D2*
X2933129D1*
X1478396Y2153588D2*
X1535279D1*
X1926608D2*
X2921180D1*
X1478701Y2128719D2*
X1510411D1*
X1901740D2*
X2552954D1*
X1876872Y2103850D2*
X2339336D1*
X2410901D2*
X2528086D1*
X1852005Y2078981D2*
X2314916D1*
X2435320D2*
X2503219D1*
X1827137Y2054113D2*
X2306950D1*
X2443286D2*
X2478333D1*
X1802269Y2029244D2*
X2308906D1*
X2441331D2*
X2453465D1*
X2595274D2*
X2874100D1*
X1661836Y2004375D2*
X1681507D1*
X1783250D2*
X2321914D1*
X2570406D2*
X2874441D1*
X1647536Y1979506D2*
X1681507D1*
X1783250D2*
X2324246D1*
X2545538D2*
X2874799D1*
X1647536Y1954638D2*
X1681507D1*
X1783250D2*
X2324246D1*
X2520671D2*
X2875140D1*
X1647536Y1929769D2*
X1681507D1*
X1783250D2*
X2306537D1*
X2495803D2*
X2875499D1*
X1647536Y1904900D2*
X1665359D1*
X1799560D2*
X2075964D1*
X2470935D2*
X2875840D1*
X1647536Y1880031D2*
X1663852D1*
X1801013D2*
X2063530D1*
X2446067D2*
X2876181D1*
X1647536Y1855162D2*
X1663762D1*
X1800923D2*
X2061969D1*
X2443699D2*
X2876540D1*
X1647536Y1830294D2*
X1664085D1*
X1800493D2*
X2070420D1*
X2443699D2*
X2876881D1*
X1647536Y1805425D2*
X1679659D1*
X1785188D2*
X2096077D1*
X2163946D2*
X2306537D1*
X2443699D2*
X2877240D1*
X1647536Y1780556D2*
X1681507D1*
X1783250D2*
X2249535D1*
X2344210D2*
X2439435D1*
X1647536Y1755687D2*
X1681507D1*
X1783250D2*
X2232670D1*
X2361076D2*
X2412557D1*
X1647536Y1730819D2*
X1681507D1*
X1783250D2*
X2228292D1*
X2365436D2*
X2387690D1*
X1647536Y1705950D2*
X1681507D1*
X1783250D2*
X2233657D1*
X1647536Y1681081D2*
X1681507D1*
X1783250D2*
X2246001D1*
X2479745D2*
X2878962D1*
X1647536Y1656212D2*
X1663798D1*
X1800959D2*
X2109695D1*
X2150328D2*
X2246001D1*
X2454877D2*
X2879321D1*
X1647536Y1631344D2*
X1663798D1*
X1800959D2*
X2074008D1*
X2437024D2*
X2879662D1*
X1647536Y1606475D2*
X1663798D1*
X1800959D2*
X2062920D1*
X2437024D2*
X2880021D1*
X1647536Y1581606D2*
X1663798D1*
X1800959D2*
X2062346D1*
X2437024D2*
X2867371D1*
X1647536Y1556737D2*
X1663798D1*
X1800959D2*
X2071998D1*
X2437024D2*
X2842504D1*
X1647536Y1531869D2*
X1663798D1*
X1800959D2*
X2101406D1*
X2158617D2*
X2299863D1*
X2437024D2*
X2817636D1*
X1647536Y1507000D2*
X1681507D1*
X1783250D2*
X2205739D1*
X2262340D2*
X2792768D1*
X1647536Y1482131D2*
X1681507D1*
X1783250D2*
X2176098D1*
X2291981D2*
X2408377D1*
X1647536Y1457262D2*
X1681507D1*
X1783250D2*
X2166392D1*
X2301687D2*
X2383491D1*
X1647536Y1432393D2*
X1681507D1*
X1783250D2*
X2166912D1*
X2301167D2*
X2358623D1*
X2859955D2*
X2868161D1*
X1647536Y1407525D2*
X1681507D1*
X1783250D2*
X2177929D1*
X2290151D2*
X2334330D1*
X2475564D2*
X2843293D1*
X1519681Y1382656D2*
X1529465D1*
X1647536D2*
X1681507D1*
X1783250D2*
X2185895D1*
X2287621D2*
X2324480D1*
X2450696D2*
X2825225D1*
X1494813Y1357787D2*
X1504598D1*
X1642656D2*
X1670472D1*
X1807634D2*
X2084612D1*
X2443699D2*
X2822534D1*
X1621520Y1332918D2*
X1670472D1*
X1807634D2*
X2070850D1*
X2443699D2*
X2822534D1*
X1596653Y1308050D2*
X1670472D1*
X1807634D2*
X2068392D1*
X2443699D2*
X2822534D1*
X1571785Y1283181D2*
X1670472D1*
X1807634D2*
X2075802D1*
X2443699D2*
X2822534D1*
X1546917Y1258312D2*
X1670472D1*
X1807634D2*
X2098786D1*
X2174603D2*
X2306537D1*
X2443699D2*
X2801650D1*
X1489969Y1233443D2*
X1688199D1*
X1789925D2*
X2079983D1*
X2180165D2*
X2776782D1*
X1490274Y1208575D2*
X1688199D1*
X1789925D2*
X2064911D1*
X2195237D2*
X2433585D1*
X1490597Y1183706D2*
X1688199D1*
X1789925D2*
X2061610D1*
X2198538D2*
X2408700D1*
X2868855D2*
X2885924D1*
X1490902Y1158837D2*
X1688199D1*
X1789925D2*
X2068069D1*
X2192061D2*
X2383832D1*
X2843987D2*
X2886282D1*
X1491207Y1133968D2*
X1688199D1*
X1789925D2*
X2079211D1*
X2180937D2*
X2358964D1*
X2818132D2*
X2886623D1*
X1467649Y1109099D2*
X1688199D1*
X1789925D2*
X2079211D1*
X2180937D2*
X2334097D1*
X2475887D2*
X2886964D1*
X1442763Y1084231D2*
X1663852D1*
X1801013D2*
X2079211D1*
X2451019D2*
X2887323D1*
X1434546Y1059362D2*
X1663852D1*
X1801013D2*
X2065521D1*
X2437024D2*
X2887664D1*
X1410145Y1034493D2*
X1663852D1*
X1801013D2*
X2061520D1*
X2437024D2*
X2888005D1*
X1433846Y1009624D2*
X1663852D1*
X1801013D2*
X2067262D1*
X2437024D2*
X2888364D1*
X1440216Y984756D2*
X1663852D1*
X1801013D2*
X2086639D1*
X2173509D2*
X2299863D1*
X2437024D2*
X2888705D1*
X1434797Y959887D2*
X1681561D1*
X1783304D2*
X2889063D1*
X1309920Y935018D2*
X1338023D1*
X1426526D2*
X1681561D1*
X1783304D2*
X2889404D1*
X1289735Y910149D2*
X1319166D1*
X1445365D2*
X1681561D1*
X1788579D2*
X2889745D1*
X1269550Y885281D2*
X1312851D1*
X1450837D2*
X1682637D1*
X1813447D2*
X2890104D1*
X1249366Y860412D2*
X1287983D1*
X1446585D2*
X1696524D1*
X1838315D2*
X2890445D1*
X1229181Y835543D2*
X1263115D1*
X1429917D2*
X1721392D1*
X1863183D2*
X2890804D1*
X1208996Y810674D2*
X1238247D1*
X1380056D2*
X1746260D1*
X1888068D2*
X2884937D1*
X1188829Y785806D2*
X1213380D1*
X1355188D2*
X1771127D1*
X1912936D2*
X2860069D1*
X1330302Y760937D2*
X1795995D1*
X1937804D2*
X2835201D1*
X1305435Y736068D2*
X1820863D1*
X1980524D2*
X2029763D1*
X1280567Y711199D2*
X1845731D1*
X1277571Y686330D2*
X1870598D1*
X1284909Y661462D2*
X1666561D1*
X1732815D2*
X1882279D1*
X2875888D2*
X2893226D1*
X1282397Y636593D2*
X1642644D1*
X1756732D2*
X1876717D1*
X2004817D2*
X2893585D1*
X1268564Y611724D2*
X1635736D1*
X2004817D2*
X2893926D1*
X1226256Y586855D2*
X1639397D1*
X2004817D2*
X2894267D1*
X1251124Y561987D2*
X1655832D1*
X2004817D2*
X2894625D1*
X2004817Y537118D2*
X2894966D1*
X1657432Y563536D2*
X1654580Y566181D1*
X1648841Y573372D1*
X1644238Y581338D1*
X1640874Y589901D1*
X1638823Y598869D1*
X1638133Y608043D1*
X1638817Y617218D1*
X1640861Y626188D1*
X1644219Y634753D1*
X1648816Y642722D1*
X1654549Y649917D1*
X1661291Y656178D1*
X1668891Y661363D1*
X1677178Y665358D1*
X1685969Y668073D1*
X1695065Y669447D1*
X1704265Y669450D1*
X1713363Y668082D1*
X1722156Y665374D1*
X1730446Y661385D1*
X1738049Y656205D1*
X1744796Y649950D1*
X1750534Y642759D1*
X1754764Y635439D1*
X1879212D1*
Y648627D1*
X1892914Y648622D1*
X1889915Y652379D1*
X1885312Y660344D1*
X1881948Y668907D1*
X1879898Y677876D1*
X1879762Y679677D1*
X1698233Y861200D1*
X1692391Y868272D1*
X1687990Y876319D1*
X1685187Y885053D1*
X1684083Y894168D1*
X1684067Y931786D1*
Y970550D1*
X1666351Y970548D1*
Y1102714D1*
X1690689D1*
X1690692Y1248005D1*
X1672975Y1248011D1*
Y1380176D1*
X1684019D1*
X1684013Y1526489D1*
X1666297Y1526493D1*
Y1658659D1*
X1684015D1*
X1684014Y1804253D1*
X1679341Y1807557D1*
X1673092Y1814258D1*
X1668707Y1822302D1*
X1666459Y1831184D1*
X1666187Y1835779D1*
X1666410Y1894833D1*
X1667593Y1903919D1*
X1670997Y1912425D1*
X1676410Y1919817D1*
X1683500Y1925635D1*
X1684014Y1929351D1*
Y2029044D1*
X1645032Y1990064D1*
X1645037Y1596888D1*
Y1378967D1*
X1644167Y1369836D1*
X1641589Y1361033D1*
X1637395Y1352875D1*
X1631730Y1345650D1*
X1605435Y1319332D1*
X1535699Y1249595D1*
X1528627Y1243754D1*
X1520579Y1239352D1*
X1511846Y1236549D1*
X1502731Y1235446D1*
X1487429Y1235429D1*
X1488304Y1166622D1*
X1488663Y1138021D1*
X1488648Y1137145D1*
X1486923Y1131436D1*
X1485004Y1128963D1*
X1437530Y1081482D1*
X1436963Y1074651D1*
X1434712Y1065773D1*
X1431030Y1057387D1*
X1426018Y1049722D1*
X1419813Y1042986D1*
X1412584Y1037363D1*
X1406110Y1033861D1*
X1406109Y1033731D1*
X1412613Y1030209D1*
X1419839Y1024581D1*
X1426040Y1017841D1*
X1431047Y1010173D1*
X1434723Y1001784D1*
X1436968Y992905D1*
X1437722Y983795D1*
X1436963Y974651D1*
X1434712Y965773D1*
X1431030Y957387D1*
X1426018Y949722D1*
X1419813Y942986D1*
X1416432Y940355D1*
X1416482Y940163D1*
X1419188Y938603D1*
X1426457Y932931D1*
X1432865Y926303D1*
X1438289Y918848D1*
X1442622Y910711D1*
X1445781Y902049D1*
X1447703Y893032D1*
X1448352Y883795D1*
X1447714Y874638D1*
X1445803Y865619D1*
X1442655Y856954D1*
X1438332Y848811D1*
X1432917Y841349D1*
X1426517Y834713D1*
X1419256Y829033D1*
X1411274Y824418D1*
X1402728Y820959D1*
X1393784Y818724D1*
X1384625Y817755D1*
X1266144Y699271D1*
X1267196Y698056D1*
X1272620Y690601D1*
X1276953Y682463D1*
X1280111Y673802D1*
X1282034Y664785D1*
X1282682Y655548D1*
X1282045Y646391D1*
X1280134Y637372D1*
X1276986Y628707D1*
X1272662Y620564D1*
X1267248Y613102D1*
X1260848Y606466D1*
X1253586Y600785D1*
X1245605Y596171D1*
X1237059Y592712D1*
X1228115Y590476D1*
X1220889Y589712D1*
X1266279Y544327D1*
X1689832Y539722D1*
X1688759Y539957D1*
X1686978Y540406D1*
X1685215Y540922D1*
X1683472Y541505D1*
X1681754Y542154D1*
X1680061Y542867D1*
X1678396Y543644D1*
X1676762Y544484D1*
X1675161Y545386D1*
X1667732Y550766D1*
X1661448Y557459D1*
X1657432Y563536D1*
X2002322Y638714D2*
Y536319D1*
X2106253Y535196D1*
X2897623Y526594D1*
X2895445Y681879D1*
X2881645Y668082D1*
X2874573Y662240D1*
X2866526Y657839D1*
X2857792Y655036D1*
X2848677Y653932D1*
X2810810Y653916D1*
X2086927D1*
X2085873Y652871D1*
X2078801Y647029D1*
X2070754Y642628D1*
X2062020Y639825D1*
X2052905Y638722D1*
X2014873Y638706D1*
X2002322D1*
X1879212Y537665D2*
Y538711D1*
X1783339Y538706D1*
X1879218Y537664D1*
X2435130Y1207636D2*
X2334240Y1106745D1*
X2330915Y1103060D1*
X2330625Y1102708D1*
X2302357D1*
X2302359Y1084997D1*
X2178437Y1084992D1*
X2178438Y1142780D1*
X2180719Y1145146D1*
X2186134Y1152608D1*
X2190457Y1160751D1*
X2193605Y1169416D1*
X2195516Y1178435D1*
X2196154Y1187632D1*
X2195505Y1196829D1*
X2193582Y1205846D1*
X2190424Y1214507D1*
X2186091Y1222645D1*
X2180667Y1230100D1*
X2174259Y1236728D1*
X2166990Y1242400D1*
X2159003Y1247004D1*
X2151923Y1249962D1*
X2157155Y1251270D1*
X2165701Y1254729D1*
X2173682Y1259343D1*
X2180944Y1265024D1*
X2181637Y1265743D1*
X2302156Y1265739D1*
X2309036Y1265747D1*
Y1248011D1*
X2441201D1*
X2441204Y1375666D1*
X2474695Y1409151D1*
X2815427Y1409167D1*
X2824532Y1410271D1*
X2833266Y1413074D1*
X2841314Y1417476D1*
X2848385Y1423317D1*
X2884569Y1459503D1*
X2884747Y1446479D1*
X2839204Y1400936D1*
X2835879Y1397251D1*
X2830793Y1389618D1*
X2827239Y1381162D1*
X2825346Y1372178D1*
X2825038Y1366716D1*
Y1279196D1*
X2767660Y1221820D1*
X2469348D1*
X2464392Y1221565D1*
X2455398Y1219764D1*
X2446905Y1216298D1*
X2439214Y1211284D1*
X2435130Y1207636D1*
X2274540Y2333703D2*
X2268005Y2331058D1*
X2259061Y2328822D1*
X2249893Y2327853D1*
X2240679Y2328169D1*
X2231598Y2329764D1*
X2222829Y2332608D1*
X2214540Y2336644D1*
X2206893Y2341795D1*
X2204771Y2343703D1*
X2191703Y2343701D1*
X2182572Y2344571D1*
X2173769Y2347149D1*
X2165612Y2351342D1*
X2158386Y2357007D1*
X2133589Y2381781D1*
X2135645Y2375735D1*
X2137568Y2366719D1*
X2138217Y2357482D1*
X2137579Y2348325D1*
X2135668Y2339306D1*
X2132520Y2330640D1*
X2128197Y2322498D1*
X2122782Y2315036D1*
X2116382Y2308400D1*
X2109120Y2302719D1*
X2101139Y2298105D1*
X2095005Y2295622D1*
X2236456D1*
X2274313Y2333472D1*
X1913855Y2727871D2*
X1909509Y2728021D1*
X1900429Y2729616D1*
X1891659Y2732459D1*
X1883370Y2736496D1*
X1875724Y2741647D1*
X1868869Y2747811D1*
X1862938Y2754870D1*
X1858048Y2762686D1*
X1854293Y2771106D1*
X1851746Y2779966D1*
X1850458Y2789095D1*
X1850452Y2798315D1*
X1851730Y2807445D1*
X1854265Y2816309D1*
X1858010Y2824734D1*
X1862891Y2832555D1*
X1868813Y2839621D1*
X1875660Y2845794D1*
X1883300Y2850954D1*
X1891584Y2855001D1*
X1900350Y2857855D1*
X1909429Y2859462D1*
X1918642Y2859789D1*
X1927812Y2858831D1*
X1936759Y2856606D1*
X1945309Y2853158D1*
X1953296Y2848553D1*
X1960564Y2842882D1*
X1966973Y2836254D1*
X1972396Y2828798D1*
X1976730Y2820661D1*
X1979888Y2811999D1*
X1981811Y2802982D1*
X1982286Y2796238D1*
X2034664Y2743858D1*
X2038238Y2747110D1*
X2045602Y2752530D1*
X2053622Y2756920D1*
X2062156Y2760202D1*
X2071052Y2762316D1*
X2080149Y2763227D1*
X2089287Y2762916D1*
X2098302Y2761391D1*
X2107034Y2758677D1*
X2115325Y2754824D1*
X2123030Y2749900D1*
X2130009Y2743993D1*
X2132301Y2741456D1*
X2138238Y2747110D1*
X2145602Y2752530D1*
X2153622Y2756920D1*
X2162156Y2760202D1*
X2171052Y2762316D1*
X2180149Y2763227D1*
X2189287Y2762916D1*
X2198302Y2761391D1*
X2207034Y2758677D1*
X2215325Y2754824D1*
X2223030Y2749900D1*
X2230009Y2743993D1*
X2230745Y2743179D1*
X2233970Y2743185D1*
X2238238Y2747110D1*
X2245602Y2752530D1*
X2253622Y2756920D1*
X2262156Y2760202D1*
X2271052Y2762316D1*
X2280149Y2763227D1*
X2289287Y2762916D1*
X2298302Y2761391D1*
X2307034Y2758677D1*
X2315325Y2754824D1*
X2323030Y2749900D1*
X2330009Y2743993D1*
X2336138Y2737209D1*
X2341309Y2729668D1*
X2345428Y2721506D1*
X2348423Y2712867D1*
X2350239Y2703906D1*
X2350845Y2694819D1*
X2350230Y2685660D1*
X2348404Y2676701D1*
X2345400Y2668065D1*
X2344114Y2665524D1*
X2371222Y2638413D1*
X2443646Y2638408D1*
X2438183Y2642574D1*
X2431614Y2648934D1*
X2425951Y2656113D1*
X2421296Y2663982D1*
X2417731Y2672402D1*
X2415320Y2681221D1*
X2414106Y2690284D1*
X2414111Y2699427D1*
X2415334Y2708488D1*
X2415719Y2709891D1*
X2013906Y3111707D1*
X1507799Y3111706D1*
X1503965Y3016016D1*
X1596110Y2923863D1*
X1846646Y2673327D1*
X1968395Y2673329D1*
X1914016Y2727706D1*
X2807206Y2632402D2*
X2806874Y2632367D1*
X2797660Y2632683D1*
X2788580Y2634279D1*
X2779810Y2637122D1*
X2771521Y2641159D1*
X2763875Y2646309D1*
X2757535Y2652011D1*
X2735801Y2652014D1*
X2729957Y2645594D1*
X2722971Y2639694D1*
X2715262Y2634779D1*
X2706966Y2630934D1*
X2698232Y2628230D1*
X2689215Y2626714D1*
X2680077Y2626413D1*
X2670980Y2627333D1*
X2662087Y2629458D1*
X2653556Y2632748D1*
X2645541Y2637147D1*
X2638183Y2642574D1*
X2632441Y2648133D1*
X2629957Y2645594D1*
X2622971Y2639694D1*
X2615262Y2634779D1*
X2606966Y2630934D1*
X2598232Y2628230D1*
X2589215Y2626714D1*
X2580077Y2626413D1*
X2570980Y2627333D1*
X2562087Y2629458D1*
X2553556Y2632748D1*
X2545541Y2637147D1*
X2538183Y2642574D1*
X2532441Y2648133D1*
X2529957Y2645594D1*
X2522971Y2639694D1*
X2517046Y2635916D1*
X2519658Y2634960D1*
X2527816Y2630767D1*
X2535041Y2625102D1*
X2545179Y2614987D1*
X2550077Y2615231D1*
X2790035D1*
X2807178Y2632380D1*
X1567040Y2549223D2*
X1559819Y2544296D1*
X1551532Y2540301D1*
X1542741Y2537586D1*
X1533644Y2536212D1*
X1524444Y2536209D1*
X1515347Y2537576D1*
X1506554Y2540285D1*
X1498264Y2544274D1*
X1490661Y2549454D1*
X1485423Y2554310D1*
X1481328Y2452147D1*
X1474327Y2277755D1*
X1476658Y2092478D1*
X1753373Y2369188D1*
X1683799Y2438775D1*
X1573353Y2549221D1*
X1567093Y2549227D1*
X1593356Y2645959D2*
X1567050Y2645960D1*
X1559780Y2650913D1*
X1551490Y2654901D1*
X1542698Y2657610D1*
X1533600Y2658978D1*
X1524400Y2658975D1*
X1515303Y2657600D1*
X1506513Y2654885D1*
X1498225Y2650890D1*
X1490626Y2645705D1*
X1489039Y2644232D1*
X1493501Y2755329D1*
X1604068Y2644762D1*
X1593356Y2645959D1*
X1316346Y886267D2*
X1316345Y888365D1*
X1317622Y897495D1*
X1320158Y906359D1*
X1323902Y914783D1*
X1328783Y922605D1*
X1334705Y929671D1*
X1341553Y935844D1*
X1348006Y940203D1*
X1344699Y943009D1*
X1338498Y949749D1*
X1333492Y957418D1*
X1330724Y963734D1*
X1180425Y778541D1*
X1181040Y750913D1*
X1182400Y752326D1*
X1316231Y886158D1*
X2090986Y2426374D2*
X1963956D1*
Y2442961D1*
X1920976Y2399990D1*
X1923250Y2401147D1*
X1924924Y2401905D1*
X1926625Y2402600D1*
X1928351Y2403229D1*
X1930099Y2403792D1*
X1931868Y2404289D1*
X1933655Y2404717D1*
X1942759Y2405831D1*
X1953199Y2405848D1*
X2027111D1*
X2031417Y2409531D1*
X2039057Y2414691D1*
X2047341Y2418737D1*
X2056108Y2421592D1*
X2065186Y2423198D1*
X2074400Y2423525D1*
X2083569Y2422567D1*
X2092516Y2420343D1*
X2096816Y2418608D1*
X2092354Y2424250D1*
X2090986Y2426374D1*
X2230730Y2646448D2*
X2229957Y2645594D1*
X2226771Y2642903D1*
X2310136Y2559540D1*
X2312156Y2560202D1*
X2312547Y2560294D1*
X2248200Y2624635D1*
X2242358Y2631706D1*
X2237954Y2639762D1*
X2234898Y2645754D1*
X2234176Y2646453D1*
X2230831D1*
X2502250Y2760164D2*
X2507034Y2758677D1*
X2515325Y2754824D1*
X2523030Y2749900D1*
X2530009Y2743993D1*
X2532301Y2741456D1*
X2533162Y2742206D1*
X2385794Y2889583D1*
X2080691Y3194686D1*
X2067721Y3194684D1*
X2133009Y3129404D1*
X2502029Y2760384D1*
X2049189Y2295621D2*
X2047416Y2296196D1*
X2039128Y2300232D1*
X2031481Y2305383D1*
X2027324Y2309121D1*
X1964079Y2309115D1*
X1950585Y2295617D1*
X2048889Y2295622D1*
X1798351Y1835301D2*
X1798575Y1894333D1*
X1798302Y1898927D1*
X1796055Y1907809D1*
X1791669Y1915854D1*
X1785413Y1922560D1*
X1780747Y1925866D1*
X1780749Y2010222D1*
X1969425Y2198890D1*
X2257739Y2198906D1*
X2266844Y2200009D1*
X2275578Y2202813D1*
X2283626Y2207214D1*
X2290697Y2213056D1*
X2410185Y2332565D1*
X2415843Y2339785D1*
X2418210Y2343908D1*
X2419366Y2344812D1*
X2425766Y2351448D1*
X2431181Y2358910D1*
X2435504Y2367052D1*
X2438652Y2375718D1*
X2440563Y2384737D1*
X2441201Y2393934D1*
X2440552Y2403131D1*
X2438630Y2412148D1*
X2435471Y2420809D1*
X2432602Y2426497D1*
X2439215Y2426714D1*
X2448232Y2428230D1*
X2451785Y2429182D1*
X2449102Y2424882D1*
X2445357Y2416457D1*
X2442821Y2407593D1*
X2441544Y2398463D1*
X2441550Y2389244D1*
X2442838Y2380115D1*
X2445385Y2371254D1*
X2449140Y2362834D1*
X2454030Y2355018D1*
X2459961Y2347960D1*
X2466816Y2341795D1*
X2474462Y2336644D1*
X2482751Y2332608D1*
X2491521Y2329764D1*
X2500601Y2328169D1*
X2509815Y2327853D1*
X2518984Y2328822D1*
X2527928Y2331058D1*
X2536474Y2334517D1*
X2544455Y2339131D1*
X2548050Y2341944D1*
X2561076Y2341942D1*
X2566033Y2342197D1*
X2575027Y2343998D1*
X2583519Y2347464D1*
X2591211Y2352478D1*
X2595294Y2356126D1*
X2666600Y2427432D1*
X2671057Y2432565D1*
X2675850Y2440385D1*
X2677112Y2443191D1*
X2679957Y2445594D1*
X2682300Y2448182D1*
X2682446Y2448128D1*
X2684031Y2446594D1*
X2684029Y2419665D1*
X2681179Y2418737D1*
X2672895Y2414691D1*
X2665255Y2409531D1*
X2658407Y2403357D1*
X2652485Y2396291D1*
X2647605Y2388470D1*
X2643860Y2380045D1*
X2641324Y2371181D1*
X2640047Y2362051D1*
X2640052Y2352832D1*
X2641341Y2343703D1*
X2643888Y2334842D1*
X2647643Y2326422D1*
X2652533Y2318606D1*
X2658463Y2311548D1*
X2665319Y2305383D1*
X2672965Y2300232D1*
X2681254Y2296196D1*
X2690024Y2293352D1*
X2699104Y2291757D1*
X2708318Y2291441D1*
X2717486Y2292410D1*
X2726430Y2294646D1*
X2734976Y2298105D1*
X2742958Y2302719D1*
X2750219Y2308400D1*
X2756619Y2315036D1*
X2762034Y2322498D1*
X2766357Y2330640D1*
X2769505Y2339306D1*
X2771416Y2348325D1*
X2771956Y2356078D1*
X2775011Y2361029D1*
X2778565Y2369485D1*
X2780459Y2378469D1*
X2780766Y2383935D1*
X2780758Y2417192D1*
X2808992Y2417207D1*
X2818098Y2418311D1*
X2826832Y2421114D1*
X2834879Y2425516D1*
X2841951Y2431358D1*
X3012811Y2602226D1*
X3013054D1*
X3022151Y2603601D1*
X3030941Y2606316D1*
X3039229Y2610310D1*
X3046828Y2615496D1*
X3053570Y2621756D1*
X3059304Y2628951D1*
X3063901Y2636920D1*
X3067259Y2645485D1*
X3069303Y2654455D1*
X3069987Y2663630D1*
X3069296Y2672804D1*
X3067246Y2681773D1*
X3063881Y2690335D1*
X3059278Y2698301D1*
X3053540Y2705492D1*
X3046793Y2711747D1*
X3039190Y2716927D1*
X3030900Y2720916D1*
X3022107Y2723624D1*
X3013010Y2724992D1*
X3003810Y2724989D1*
X2994713Y2723614D1*
X2985922Y2720900D1*
X2977635Y2716905D1*
X2970035Y2711719D1*
X2963294Y2705459D1*
X2957560Y2698264D1*
X2952963Y2690295D1*
X2949605Y2681730D1*
X2947753Y2673961D1*
X2941522Y2667727D1*
Y3072904D1*
X2941459Y3084384D1*
X2940122Y3093459D1*
X2937095Y3102118D1*
X2932489Y3110050D1*
X2926467Y3116969D1*
X2919248Y3122628D1*
X2911090Y3126821D1*
X2902287Y3129399D1*
X2893156Y3130269D1*
X2844495Y3130263D1*
Y3149954D1*
X2708392D1*
Y3013852D1*
X2844495D1*
X2844500Y3033537D1*
X2844790Y3033543D1*
X2844786Y2750609D1*
X2841279Y2753329D1*
X2833278Y2757909D1*
X2824717Y2761331D1*
X2815763Y2763529D1*
X2806591Y2764459D1*
X2797378Y2764103D1*
X2788305Y2762469D1*
X2779547Y2759587D1*
X2771276Y2755515D1*
X2763652Y2750332D1*
X2756823Y2744138D1*
X2751401Y2737628D1*
X2735761Y2737626D1*
X2730009Y2743993D1*
X2723030Y2749900D1*
X2715325Y2754824D1*
X2707034Y2758677D1*
X2698302Y2761391D1*
X2689287Y2762916D1*
X2680149Y2763227D1*
X2671052Y2762316D1*
X2662156Y2760202D1*
X2653622Y2756920D1*
X2645602Y2752530D1*
X2638238Y2747110D1*
X2632302Y2741455D1*
X2630768Y2743153D1*
X2630767Y2761377D1*
X2630512Y2766333D1*
X2628711Y2775327D1*
X2625244Y2783820D1*
X2620230Y2791511D1*
X2616582Y2795595D1*
X2218741Y3193440D1*
X2222829Y3191449D1*
X2231598Y3188605D1*
X2240679Y3187010D1*
X2249893Y3186694D1*
X2259061Y3187663D1*
X2268005Y3189899D1*
X2276551Y3193358D1*
X2284532Y3197973D1*
X2291794Y3203653D1*
X2292573Y3204369D1*
X2403175Y3204370D1*
X2419238Y3188311D1*
Y3096941D1*
X2555340D1*
Y3141180D1*
X2556317Y3148217D1*
X2558668Y3157083D1*
X2559303Y3166233D1*
X2558199Y3175339D1*
X2555340Y3184196D1*
Y3233043D1*
X2511298Y3233047D1*
X2505442Y3238907D1*
X3105562Y3233583D1*
X3095028Y2510326D1*
X2920746Y2147476D1*
X2594238D1*
X2589282Y2147221D1*
X2580288Y2145420D1*
X2571796Y2141953D1*
X2564104Y2136940D1*
X2560024Y2133295D1*
X2423484Y1996747D1*
X2423485Y2001948D1*
X2425766Y2004314D1*
X2431181Y2011776D1*
X2435504Y2019919D1*
X2438652Y2028584D1*
X2440563Y2037603D1*
X2441201Y2046800D1*
X2440552Y2055997D1*
X2438630Y2065014D1*
X2435471Y2073675D1*
X2431138Y2081813D1*
X2425714Y2089268D1*
X2419306Y2095896D1*
X2412037Y2101568D1*
X2404050Y2106172D1*
X2395500Y2109621D1*
X2386553Y2111846D1*
X2377384Y2112804D1*
X2368170Y2112476D1*
X2359092Y2110870D1*
X2350326Y2108015D1*
X2342042Y2103969D1*
X2334402Y2098809D1*
X2327554Y2092636D1*
X2321632Y2085569D1*
X2316752Y2077748D1*
X2313007Y2069323D1*
X2310471Y2060460D1*
X2309194Y2051329D1*
X2309199Y2042110D1*
X2310488Y2032981D1*
X2313035Y2024120D1*
X2316790Y2015700D1*
X2321680Y2007885D1*
X2326752Y2001738D1*
X2326753Y1930380D1*
X2309035D1*
X2309036Y1911917D1*
X2174948Y1911916D1*
X2174203Y1912687D1*
X2166935Y1918358D1*
X2158948Y1922963D1*
X2150398Y1926411D1*
X2141451Y1928636D1*
X2132281Y1929594D1*
X2123068Y1929267D1*
X2113989Y1927660D1*
X2105223Y1924806D1*
X2096939Y1920760D1*
X2089299Y1915599D1*
X2082452Y1909426D1*
X2076530Y1902360D1*
X2071649Y1894539D1*
X2067904Y1886114D1*
X2065369Y1877250D1*
X2064091Y1868120D1*
X2064097Y1858900D1*
X2065385Y1849772D1*
X2067932Y1840911D1*
X2071687Y1832491D1*
X2076577Y1824675D1*
X2082508Y1817617D1*
X2089363Y1811452D1*
X2097009Y1806301D1*
X2105298Y1802265D1*
X2114068Y1799421D1*
X2123148Y1797826D1*
X2132362Y1797510D1*
X2141531Y1798479D1*
X2150475Y1800715D1*
X2159021Y1804174D1*
X2167002Y1808788D1*
X2174264Y1814469D1*
X2175041Y1815184D1*
X2309035Y1815179D1*
Y1798215D1*
X2441201D1*
X2441198Y1877669D1*
X2614269Y2050743D1*
X2876300Y2050742D1*
X2879817Y1799422D1*
X2867899Y1787498D1*
X2466899D1*
X2461943Y1787244D1*
X2452949Y1785443D1*
X2444456Y1781976D1*
X2436765Y1776962D1*
X2432682Y1773315D1*
X2345239Y1685868D1*
X2345240Y1687208D1*
X2347521Y1689574D1*
X2352935Y1697036D1*
X2357259Y1705178D1*
X2360407Y1713844D1*
X2362318Y1722863D1*
X2362955Y1732060D1*
X2362307Y1741257D1*
X2360384Y1750273D1*
X2357226Y1758935D1*
X2352893Y1767073D1*
X2347469Y1774528D1*
X2341061Y1781156D1*
X2333792Y1786827D1*
X2325805Y1791432D1*
X2317255Y1794881D1*
X2308308Y1797105D1*
X2299138Y1798064D1*
X2289925Y1797736D1*
X2280847Y1796130D1*
X2272080Y1793275D1*
X2263796Y1789229D1*
X2256156Y1784069D1*
X2249309Y1777895D1*
X2243387Y1770829D1*
X2238506Y1763008D1*
X2234761Y1754583D1*
X2232226Y1745719D1*
X2230948Y1736589D1*
X2230954Y1727370D1*
X2232243Y1718241D1*
X2234789Y1709380D1*
X2238544Y1700960D1*
X2243435Y1693144D1*
X2248506Y1686986D1*
X2248511Y1640938D1*
X2174950Y1640942D1*
X2174205Y1641712D1*
X2166936Y1647384D1*
X2158949Y1651989D1*
X2150399Y1655437D1*
X2141452Y1657662D1*
X2132283Y1658620D1*
X2123069Y1658293D1*
X2113991Y1656686D1*
X2105224Y1653832D1*
X2096941Y1649785D1*
X2089301Y1644625D1*
X2082453Y1638452D1*
X2076531Y1631386D1*
X2071651Y1623564D1*
X2067906Y1615140D1*
X2065370Y1606276D1*
X2064093Y1597145D1*
X2064098Y1587926D1*
X2065387Y1578797D1*
X2067934Y1569936D1*
X2071689Y1561516D1*
X2076579Y1553701D1*
X2082509Y1546642D1*
X2089364Y1540477D1*
X2097011Y1535327D1*
X2105300Y1531290D1*
X2114070Y1528447D1*
X2123150Y1526851D1*
X2132364Y1526535D1*
X2141532Y1527504D1*
X2150476Y1529740D1*
X2159022Y1533199D1*
X2167004Y1537814D1*
X2174265Y1543494D1*
X2174959Y1544214D1*
X2260042Y1544205D1*
X2302357D1*
Y1526488D1*
X2434522D1*
X2434524Y1638357D1*
X2486928Y1690766D1*
X2881334Y1690771D1*
X2882676Y1594408D1*
X2794146Y1505884D1*
X2454655D1*
X2449699Y1505629D1*
X2440705Y1503828D1*
X2432213Y1500361D1*
X2424521Y1495348D1*
X2420437Y1491699D1*
X2340918Y1412180D1*
X2337593Y1408496D1*
X2332507Y1400862D1*
X2328953Y1392406D1*
X2327060Y1383431D1*
X2326807Y1380176D1*
X2309036D1*
X2309041Y1362471D1*
X2285129D1*
X2285128Y1404319D1*
X2290103Y1411176D1*
X2294427Y1419319D1*
X2297575Y1427984D1*
X2299486Y1437003D1*
X2300123Y1446201D1*
X2299475Y1455397D1*
X2297552Y1464414D1*
X2294394Y1473075D1*
X2290060Y1481213D1*
X2284637Y1488668D1*
X2278228Y1495296D1*
X2270960Y1500968D1*
X2262973Y1505573D1*
X2254423Y1509021D1*
X2245476Y1511246D1*
X2236306Y1512204D1*
X2227093Y1511877D1*
X2218015Y1510270D1*
X2209248Y1507416D1*
X2200964Y1503369D1*
X2193324Y1498209D1*
X2186477Y1492036D1*
X2180555Y1484970D1*
X2175674Y1477148D1*
X2171929Y1468724D1*
X2169394Y1459860D1*
X2168116Y1450729D1*
X2168122Y1441510D1*
X2169411Y1432381D1*
X2171957Y1423520D1*
X2175712Y1415100D1*
X2180603Y1407285D1*
X2186533Y1400226D1*
X2188401Y1398546D1*
X2188392Y1362472D1*
X2181628Y1362471D1*
X2180883Y1363242D1*
X2173615Y1368913D1*
X2165628Y1373518D1*
X2157078Y1376966D1*
X2148131Y1379191D1*
X2138961Y1380149D1*
X2129748Y1379822D1*
X2120669Y1378216D1*
X2111903Y1375361D1*
X2103619Y1371315D1*
X2095979Y1366154D1*
X2089131Y1359981D1*
X2083210Y1352915D1*
X2078329Y1345094D1*
X2074584Y1336669D1*
X2072049Y1327805D1*
X2070771Y1318675D1*
X2070777Y1309455D1*
X2072065Y1300327D1*
X2074612Y1291466D1*
X2078367Y1283046D1*
X2083257Y1275230D1*
X2089188Y1268172D1*
X2096043Y1262007D1*
X2103689Y1256856D1*
X2111978Y1252820D1*
X2114656Y1251810D1*
X2114045Y1251702D1*
X2105278Y1248847D1*
X2096994Y1244801D1*
X2089354Y1239641D1*
X2082507Y1233468D1*
X2076585Y1226401D1*
X2071704Y1218580D1*
X2067960Y1210155D1*
X2065424Y1201292D1*
X2064146Y1192161D1*
X2064152Y1182942D1*
X2065441Y1173813D1*
X2067987Y1164952D1*
X2071742Y1156532D1*
X2076633Y1148717D1*
X2081705Y1142562D1*
X2081703Y1081548D1*
X2076585Y1075441D1*
X2071704Y1067619D1*
X2067960Y1059195D1*
X2065424Y1050331D1*
X2064146Y1041200D1*
X2064152Y1031981D1*
X2065441Y1022852D1*
X2067987Y1013992D1*
X2071742Y1005572D1*
X2076633Y997756D1*
X2082563Y990697D1*
X2089418Y984532D1*
X2097065Y979382D1*
X2105353Y975345D1*
X2114123Y972502D1*
X2123204Y970906D1*
X2132418Y970590D1*
X2141586Y971560D1*
X2150530Y973795D1*
X2159076Y977254D1*
X2167057Y981869D1*
X2174319Y987549D1*
X2175087Y988259D1*
X2302357Y988260D1*
Y970543D1*
X2434522D1*
X2434523Y1070229D1*
X2489384Y1125088D1*
X2788937Y1125103D1*
X2798042Y1126207D1*
X2806776Y1129010D1*
X2814824Y1133412D1*
X2821895Y1139254D1*
X2888122Y1205485D1*
X2893559Y816797D1*
X2827404Y750648D1*
X2066886D1*
X2061929Y750394D1*
X2052935Y748593D1*
X2044443Y745126D1*
X2036751Y740112D1*
X2032669Y736466D1*
X2031651Y735438D1*
X1978789Y735439D1*
X1971520Y740392D1*
X1963230Y744380D1*
X1954438Y747089D1*
X1948210Y748025D1*
X1780799Y915442D1*
X1780798Y970548D1*
X1798516D1*
Y1102714D1*
X1787424Y1102705D1*
X1787423Y1248011D1*
X1805141D1*
Y1380176D1*
X1780745Y1380180D1*
X1780744Y1526493D1*
X1798462D1*
Y1658659D1*
X1780747Y1658654D1*
Y1800854D1*
X1783179Y1805767D1*
X1789880Y1812016D1*
X1794817Y1819734D1*
X1797680Y1828447D1*
X1798351Y1835301D1*
X1906881Y2522688D2*
X1746176D1*
X1737036Y2523560D1*
X1737857Y2521517D1*
X1821775Y2437599D1*
X1906878Y2522693D1*
X1548304Y2010084D2*
X1548309Y1399006D1*
X1486162Y1336852D1*
X1485973Y1351446D1*
X1525644Y1391139D1*
X1531302Y1398358D1*
X1535496Y1406516D1*
X1538074Y1415319D1*
X1538944Y1424450D1*
X1538938Y2017953D1*
X1550807Y2029821D1*
X1554060Y2032986D1*
X1553221Y2031351D1*
X1552446Y2029686D1*
X1551734Y2027992D1*
X1551087Y2026272D1*
X1550506Y2024530D1*
X1548612Y2015546D1*
X1548304Y2010084D1*
D17*
X2487289Y3164992D3*
D18*
X2487293Y3064992D3*
D17*
X2776444Y3081903D3*
D18*
Y3181903D3*
D19*
X1940762Y687072D3*
D20*
X1940767Y587072D3*
D21*
X2375118Y1864297D3*
D22*
X2772756Y1864309D3*
D21*
X2368440Y1592570D3*
D22*
X2766077Y1592582D3*
D21*
X2375118Y1314094D3*
D22*
X2772756Y1314106D3*
D21*
X2368440Y1036625D3*
D22*
X2766077Y1036637D3*
D52*
X1732381Y1865056D3*
D22*
X2130016Y1863551D3*
D21*
X1732379Y1592576D3*
D22*
X2130017D3*
D21*
X1739058Y1314094D3*
D22*
X2136696Y1314106D3*
D21*
X1732433Y1036631D3*
D22*
X2130071D3*
D23*
X2507469Y2393894D3*
X2247546D3*
X1916377Y2793745D3*
X2804528Y2698408D3*
X2375118Y2393894D3*
X2247546Y3252735D3*
D19*
X1699688Y608066D3*
D24*
X1399688Y608052D3*
D19*
X3008432Y2663608D3*
D24*
Y2963608D3*
D19*
X1529022Y2597593D3*
D24*
X1529028Y2297593D3*
D23*
X782269Y883795D3*
Y983795D3*
Y1083795D3*
Y1183795D3*
Y1283795D3*
Y1383795D3*
Y1483795D3*
Y1583795D3*
Y1683795D3*
Y1783795D3*
Y1883795D3*
Y1983795D3*
Y2083795D3*
Y2183795D3*
Y2283795D3*
Y2383795D3*
Y2483795D3*
Y2583795D3*
Y2683795D3*
Y2783795D3*
X1382269Y883795D3*
Y983795D3*
Y1083795D3*
Y1183795D3*
Y1283795D3*
Y1383795D3*
Y1483795D3*
Y1583795D3*
Y1683795D3*
Y1783795D3*
Y1883795D3*
Y1983795D3*
Y2083795D3*
Y2183795D3*
Y2283795D3*
Y2383795D3*
Y2483795D3*
Y2583795D3*
Y2683795D3*
Y2783795D3*
D26*
X2032400Y2494819D3*
D27*
X2082400Y2694819D3*
X2132400Y2494819D3*
X2182400Y2694819D3*
X2232400Y2494819D3*
X2282400Y2694819D3*
X2332400Y2494819D3*
X2382400Y2694819D3*
X2432400Y2494819D3*
X2482400Y2694819D3*
X2532400Y2494819D3*
X2582400Y2694819D3*
X2632400Y2494819D3*
X2682400Y2694819D3*
X2732400Y2494819D3*
D23*
X3090894Y1942098D3*
Y2092098D3*
Y1584226D3*
Y1734226D3*
X916600Y655539D3*
X1016600Y655542D3*
X1116600Y655545D3*
X1216600Y655548D3*
X3090894Y1369193D3*
Y1219193D3*
X2072134Y2357482D3*
X2705971D3*
X2375118Y2046760D3*
X2296873Y1732020D3*
X2234041Y1446160D3*
X2130071Y1187592D3*
M02*
